# xmcd
#
# Track frame offsets: 
#        150
#        54778
#        65918
#        126825
#        138045
#        175633
#        203388
#        231980
#        256010
#        276575
#
# Disc length: 4515 seconds
#
# Revision: 0
# Processed by: cddbd v1.5.1PL2 Copyright (c) Steve Scherf et al.
# Submitted via: ExactAudioCopy v0.95b3
#
DISCID=8811a10a
DTITLE=Baker, Janet - Chausson, Berlioz, Schoenberg
DYEAR=1975
DGENRE=Classical
TTITLE0=Chausson: Poème de l'amour et de la mer, Op. 19, I. La fleur d
TTITLE0=es eaux
TTITLE1=Chausson: Poème de l'amour et de la mer, Op. 19, II. Interude
TTITLE2=Chausson: Poème de l'amour et de la mer, Op. 19, III. La Mort 
TTITLE2=de l'amour
TTITLE3=Berlioz: Les nuits d'été, Op. 7, I. Villanelle
TTITLE4=Berlioz: Les nuits d'été, Op. 7, II. Le pectre de la rose
TTITLE5=Berlioz: Les nuits d'été, Op. 7, III. Sur les lagunes
TTITLE6=Berlioz: Les nuits d'été, Op. 7, IV. Absence
TTITLE7=Berlioz: Les nuits d'été, Op. 7, V. Au cimetière
TTITLE8=Berlioz: Les nuits d'été, Op. 7, VI. L'lle inconnue
TTITLE9=Schoenberg: Gurrelieder, Song of the Wood Dove
EXTD=
EXTT0=
EXTT1=
EXTT2=
EXTT3=
EXTT4=
EXTT5=
EXTT6=
EXTT7=
EXTT8=
EXTT9=
PLAYORDER=
